G04 #@! TF.FileFunction,Legend,Top*
%FSLAX46Y46*%
G04 Gerber Fmt 4.6, Leading zero omitted, Abs format (unit mm)*
G04 Created by KiCad (PCBNEW 4.0.1-stable) date 2017/08/26 19:12:35*
%MOMM*%
G01*
G04 APERTURE LIST*
%ADD10C,0.100000*%
%ADD11C,0.250000*%
%ADD12C,0.300000*%
%ADD13C,0.150000*%
%ADD14C,0.120000*%
%ADD15R,1.600000X1.600000*%
%ADD16C,1.600000*%
%ADD17R,1.700000X1.700000*%
%ADD18O,1.700000X1.700000*%
%ADD19C,1.400000*%
%ADD20O,1.400000X1.400000*%
%ADD21C,3.200000*%
G04 APERTURE END LIST*
D10*
D11*
X151832571Y-107988810D02*
X151832571Y-107798333D01*
X151904000Y-107703095D01*
X152046857Y-107607857D01*
X152332571Y-107560238D01*
X152832571Y-107560238D01*
X153118286Y-107607857D01*
X153261143Y-107703095D01*
X153332571Y-107798333D01*
X153332571Y-107988810D01*
X153261143Y-108084048D01*
X153118286Y-108179286D01*
X152832571Y-108226905D01*
X152332571Y-108226905D01*
X152046857Y-108179286D01*
X151904000Y-108084048D01*
X151832571Y-107988810D01*
X153332571Y-107131667D02*
X152332571Y-107131667D01*
X152618286Y-107131667D02*
X152475429Y-107084048D01*
X152404000Y-107036429D01*
X152332571Y-106941191D01*
X152332571Y-106845952D01*
X153332571Y-106084047D02*
X152546857Y-106084047D01*
X152404000Y-106131666D01*
X152332571Y-106226904D01*
X152332571Y-106417381D01*
X152404000Y-106512619D01*
X153261143Y-106084047D02*
X153332571Y-106179285D01*
X153332571Y-106417381D01*
X153261143Y-106512619D01*
X153118286Y-106560238D01*
X152975429Y-106560238D01*
X152832571Y-106512619D01*
X152761143Y-106417381D01*
X152761143Y-106179285D01*
X152689714Y-106084047D01*
X152332571Y-105607857D02*
X153332571Y-105607857D01*
X152475429Y-105607857D02*
X152404000Y-105560238D01*
X152332571Y-105465000D01*
X152332571Y-105322142D01*
X152404000Y-105226904D01*
X152546857Y-105179285D01*
X153332571Y-105179285D01*
X152332571Y-104274523D02*
X153546857Y-104274523D01*
X153689714Y-104322142D01*
X153761143Y-104369761D01*
X153832571Y-104465000D01*
X153832571Y-104607857D01*
X153761143Y-104703095D01*
X153261143Y-104274523D02*
X153332571Y-104369761D01*
X153332571Y-104560238D01*
X153261143Y-104655476D01*
X153189714Y-104703095D01*
X153046857Y-104750714D01*
X152618286Y-104750714D01*
X152475429Y-104703095D01*
X152404000Y-104655476D01*
X152332571Y-104560238D01*
X152332571Y-104369761D01*
X152404000Y-104274523D01*
X153261143Y-103417380D02*
X153332571Y-103512618D01*
X153332571Y-103703095D01*
X153261143Y-103798333D01*
X153118286Y-103845952D01*
X152546857Y-103845952D01*
X152404000Y-103798333D01*
X152332571Y-103703095D01*
X152332571Y-103512618D01*
X152404000Y-103417380D01*
X152546857Y-103369761D01*
X152689714Y-103369761D01*
X152832571Y-103845952D01*
X153332571Y-102941190D02*
X151832571Y-102941190D01*
X151832571Y-102560237D01*
X151904000Y-102464999D01*
X151975429Y-102417380D01*
X152118286Y-102369761D01*
X152332571Y-102369761D01*
X152475429Y-102417380D01*
X152546857Y-102464999D01*
X152618286Y-102560237D01*
X152618286Y-102941190D01*
X153332571Y-101941190D02*
X152332571Y-101941190D01*
X151832571Y-101941190D02*
X151904000Y-101988809D01*
X151975429Y-101941190D01*
X151904000Y-101893571D01*
X151832571Y-101941190D01*
X151975429Y-101941190D01*
X151832571Y-100798333D02*
X151832571Y-100131666D01*
X153332571Y-100798333D01*
X153332571Y-100131666D01*
X152546857Y-99750714D02*
X152546857Y-99417380D01*
X153332571Y-99274523D02*
X153332571Y-99750714D01*
X151832571Y-99750714D01*
X151832571Y-99274523D01*
X153332571Y-98274523D02*
X152618286Y-98607857D01*
X153332571Y-98845952D02*
X151832571Y-98845952D01*
X151832571Y-98464999D01*
X151904000Y-98369761D01*
X151975429Y-98322142D01*
X152118286Y-98274523D01*
X152332571Y-98274523D01*
X152475429Y-98322142D01*
X152546857Y-98369761D01*
X152618286Y-98464999D01*
X152618286Y-98845952D01*
X151832571Y-97655476D02*
X151832571Y-97464999D01*
X151904000Y-97369761D01*
X152046857Y-97274523D01*
X152332571Y-97226904D01*
X152832571Y-97226904D01*
X153118286Y-97274523D01*
X153261143Y-97369761D01*
X153332571Y-97464999D01*
X153332571Y-97655476D01*
X153261143Y-97750714D01*
X153118286Y-97845952D01*
X152832571Y-97893571D01*
X152332571Y-97893571D01*
X152046857Y-97845952D01*
X151904000Y-97750714D01*
X151832571Y-97655476D01*
X152546857Y-95703094D02*
X152546857Y-96036428D01*
X153332571Y-96036428D02*
X151832571Y-96036428D01*
X151832571Y-95560237D01*
X152904000Y-95226904D02*
X152904000Y-94750713D01*
X153332571Y-95322142D02*
X151832571Y-94988809D01*
X153332571Y-94655475D01*
X153332571Y-94322142D02*
X151832571Y-94322142D01*
X153332571Y-93750713D01*
X151832571Y-93750713D01*
D12*
X148856000Y-131107571D02*
X148856000Y-129607571D01*
X150427429Y-131107571D02*
X149927429Y-130393286D01*
X149570286Y-131107571D02*
X149570286Y-129607571D01*
X150141714Y-129607571D01*
X150284572Y-129679000D01*
X150356000Y-129750429D01*
X150427429Y-129893286D01*
X150427429Y-130107571D01*
X150356000Y-130250429D01*
X150284572Y-130321857D01*
X150141714Y-130393286D01*
X149570286Y-130393286D01*
X117888000Y-130853571D02*
X117888000Y-129353571D01*
X118459428Y-129353571D01*
X118602286Y-129425000D01*
X118673714Y-129496429D01*
X118745143Y-129639286D01*
X118745143Y-129853571D01*
X118673714Y-129996429D01*
X118602286Y-130067857D01*
X118459428Y-130139286D01*
X117888000Y-130139286D01*
X119245143Y-129353571D02*
X119602286Y-130853571D01*
X119888000Y-129782143D01*
X120173714Y-130853571D01*
X120530857Y-129353571D01*
X121959429Y-130853571D02*
X121459429Y-130139286D01*
X121102286Y-130853571D02*
X121102286Y-129353571D01*
X121673714Y-129353571D01*
X121816572Y-129425000D01*
X121888000Y-129496429D01*
X121959429Y-129639286D01*
X121959429Y-129853571D01*
X121888000Y-129996429D01*
X121816572Y-130067857D01*
X121673714Y-130139286D01*
X121102286Y-130139286D01*
D13*
X139390381Y-120999285D02*
X139390381Y-121570714D01*
X139390381Y-121285000D02*
X138390381Y-121285000D01*
X138533238Y-121380238D01*
X138628476Y-121475476D01*
X138676095Y-121570714D01*
D14*
X143663000Y-127020000D02*
G75*
G03X143663000Y-127020000I-4090000J0D01*
G01*
X139573000Y-130470000D02*
X139573000Y-129270000D01*
X138923000Y-129870000D02*
X140223000Y-129870000D01*
X119888000Y-122615000D02*
X150428000Y-122615000D01*
X150428000Y-122615000D02*
X150428000Y-119955000D01*
X150428000Y-119955000D02*
X119888000Y-119955000D01*
X119888000Y-119955000D02*
X119888000Y-122615000D01*
X118618000Y-122615000D02*
X117288000Y-122615000D01*
X117288000Y-122615000D02*
X117288000Y-121285000D01*
X147828000Y-128965000D02*
X152968000Y-128965000D01*
X152968000Y-128965000D02*
X152968000Y-126305000D01*
X152968000Y-126305000D02*
X147828000Y-126305000D01*
X147828000Y-126305000D02*
X147828000Y-128965000D01*
X146558000Y-128965000D02*
X145228000Y-128965000D01*
X145228000Y-128965000D02*
X145228000Y-127635000D01*
X125828000Y-125775000D02*
X125828000Y-129495000D01*
X124108000Y-125775000D02*
X124108000Y-129495000D01*
X127918000Y-129495000D02*
X127918000Y-125775000D01*
X129638000Y-129495000D02*
X129638000Y-125775000D01*
X131728000Y-129495000D02*
X131728000Y-125775000D01*
X133448000Y-129495000D02*
X133448000Y-125775000D01*
X117288000Y-125095000D02*
X117288000Y-125035000D01*
X117288000Y-125035000D02*
X122488000Y-125035000D01*
X122488000Y-125035000D02*
X122488000Y-127695000D01*
X122488000Y-127695000D02*
X119888000Y-127695000D01*
X119888000Y-127695000D02*
X119888000Y-125095000D01*
X119888000Y-125095000D02*
X117288000Y-125095000D01*
X117288000Y-126365000D02*
X117288000Y-127695000D01*
X117288000Y-127695000D02*
X118558000Y-127695000D01*
D13*
X143343334Y-124182143D02*
X143295715Y-124229762D01*
X143152858Y-124277381D01*
X143057620Y-124277381D01*
X142914762Y-124229762D01*
X142819524Y-124134524D01*
X142771905Y-124039286D01*
X142724286Y-123848810D01*
X142724286Y-123705952D01*
X142771905Y-123515476D01*
X142819524Y-123420238D01*
X142914762Y-123325000D01*
X143057620Y-123277381D01*
X143152858Y-123277381D01*
X143295715Y-123325000D01*
X143343334Y-123372619D01*
X144295715Y-124277381D02*
X143724286Y-124277381D01*
X144010000Y-124277381D02*
X144010000Y-123277381D01*
X143914762Y-123420238D01*
X143819524Y-123515476D01*
X143724286Y-123563095D01*
X115740381Y-121618333D02*
X116454667Y-121618333D01*
X116597524Y-121665953D01*
X116692762Y-121761191D01*
X116740381Y-121904048D01*
X116740381Y-121999286D01*
X116740381Y-120618333D02*
X116740381Y-121189762D01*
X116740381Y-120904048D02*
X115740381Y-120904048D01*
X115883238Y-120999286D01*
X115978476Y-121094524D01*
X116026095Y-121189762D01*
X143680381Y-127968333D02*
X144394667Y-127968333D01*
X144537524Y-128015953D01*
X144632762Y-128111191D01*
X144680381Y-128254048D01*
X144680381Y-128349286D01*
X143680381Y-127587381D02*
X143680381Y-126968333D01*
X144061333Y-127301667D01*
X144061333Y-127158809D01*
X144108952Y-127063571D01*
X144156571Y-127015952D01*
X144251810Y-126968333D01*
X144489905Y-126968333D01*
X144585143Y-127015952D01*
X144632762Y-127063571D01*
X144680381Y-127158809D01*
X144680381Y-127444524D01*
X144632762Y-127539762D01*
X144585143Y-127587381D01*
X125055334Y-124277381D02*
X124722000Y-123801190D01*
X124483905Y-124277381D02*
X124483905Y-123277381D01*
X124864858Y-123277381D01*
X124960096Y-123325000D01*
X125007715Y-123372619D01*
X125055334Y-123467857D01*
X125055334Y-123610714D01*
X125007715Y-123705952D01*
X124960096Y-123753571D01*
X124864858Y-123801190D01*
X124483905Y-123801190D01*
X125436286Y-123372619D02*
X125483905Y-123325000D01*
X125579143Y-123277381D01*
X125817239Y-123277381D01*
X125912477Y-123325000D01*
X125960096Y-123372619D01*
X126007715Y-123467857D01*
X126007715Y-123563095D01*
X125960096Y-123705952D01*
X125388667Y-124277381D01*
X126007715Y-124277381D01*
X128611334Y-124277381D02*
X128278000Y-123801190D01*
X128039905Y-124277381D02*
X128039905Y-123277381D01*
X128420858Y-123277381D01*
X128516096Y-123325000D01*
X128563715Y-123372619D01*
X128611334Y-123467857D01*
X128611334Y-123610714D01*
X128563715Y-123705952D01*
X128516096Y-123753571D01*
X128420858Y-123801190D01*
X128039905Y-123801190D01*
X129563715Y-124277381D02*
X128992286Y-124277381D01*
X129278000Y-124277381D02*
X129278000Y-123277381D01*
X129182762Y-123420238D01*
X129087524Y-123515476D01*
X128992286Y-123563095D01*
X132675334Y-124277381D02*
X132342000Y-123801190D01*
X132103905Y-124277381D02*
X132103905Y-123277381D01*
X132484858Y-123277381D01*
X132580096Y-123325000D01*
X132627715Y-123372619D01*
X132675334Y-123467857D01*
X132675334Y-123610714D01*
X132627715Y-123705952D01*
X132580096Y-123753571D01*
X132484858Y-123801190D01*
X132103905Y-123801190D01*
X133008667Y-123277381D02*
X133627715Y-123277381D01*
X133294381Y-123658333D01*
X133437239Y-123658333D01*
X133532477Y-123705952D01*
X133580096Y-123753571D01*
X133627715Y-123848810D01*
X133627715Y-124086905D01*
X133580096Y-124182143D01*
X133532477Y-124229762D01*
X133437239Y-124277381D01*
X133151524Y-124277381D01*
X133056286Y-124229762D01*
X133008667Y-124182143D01*
X119554667Y-128147381D02*
X119554667Y-128861667D01*
X119507047Y-129004524D01*
X119411809Y-129099762D01*
X119268952Y-129147381D01*
X119173714Y-129147381D01*
X120507048Y-128147381D02*
X120030857Y-128147381D01*
X119983238Y-128623571D01*
X120030857Y-128575952D01*
X120126095Y-128528333D01*
X120364191Y-128528333D01*
X120459429Y-128575952D01*
X120507048Y-128623571D01*
X120554667Y-128718810D01*
X120554667Y-128956905D01*
X120507048Y-129052143D01*
X120459429Y-129099762D01*
X120364191Y-129147381D01*
X120126095Y-129147381D01*
X120030857Y-129099762D01*
X119983238Y-129052143D01*
%LPC*%
D15*
X139573000Y-128270000D03*
D16*
X139573000Y-125770000D03*
D17*
X118618000Y-121285000D03*
D18*
X121158000Y-121285000D03*
X123698000Y-121285000D03*
X126238000Y-121285000D03*
X128778000Y-121285000D03*
X131318000Y-121285000D03*
X133858000Y-121285000D03*
X136398000Y-121285000D03*
X138938000Y-121285000D03*
X141478000Y-121285000D03*
X144018000Y-121285000D03*
X146558000Y-121285000D03*
X149098000Y-121285000D03*
D17*
X149098000Y-70485000D03*
D18*
X149098000Y-73025000D03*
X146558000Y-70485000D03*
X146558000Y-73025000D03*
X144018000Y-70485000D03*
X144018000Y-73025000D03*
X141478000Y-70485000D03*
X141478000Y-73025000D03*
X138938000Y-70485000D03*
X138938000Y-73025000D03*
X136398000Y-70485000D03*
X136398000Y-73025000D03*
X133858000Y-70485000D03*
X133858000Y-73025000D03*
X131318000Y-70485000D03*
X131318000Y-73025000D03*
X128778000Y-70485000D03*
X128778000Y-73025000D03*
X126238000Y-70485000D03*
X126238000Y-73025000D03*
X123698000Y-70485000D03*
X123698000Y-73025000D03*
X121158000Y-70485000D03*
X121158000Y-73025000D03*
X118618000Y-70485000D03*
X118618000Y-73025000D03*
D17*
X146558000Y-127635000D03*
D18*
X149098000Y-127635000D03*
X151638000Y-127635000D03*
D17*
X149098000Y-78105000D03*
D18*
X149098000Y-80645000D03*
X146558000Y-78105000D03*
X146558000Y-80645000D03*
X144018000Y-78105000D03*
X144018000Y-80645000D03*
X141478000Y-78105000D03*
X141478000Y-80645000D03*
X138938000Y-78105000D03*
X138938000Y-80645000D03*
X136398000Y-78105000D03*
X136398000Y-80645000D03*
X133858000Y-78105000D03*
X133858000Y-80645000D03*
X131318000Y-78105000D03*
X131318000Y-80645000D03*
X128778000Y-78105000D03*
X128778000Y-80645000D03*
X126238000Y-78105000D03*
X126238000Y-80645000D03*
X123698000Y-78105000D03*
X123698000Y-80645000D03*
X121158000Y-78105000D03*
X121158000Y-80645000D03*
X118618000Y-78105000D03*
X118618000Y-80645000D03*
D19*
X124968000Y-125095000D03*
D20*
X124968000Y-130175000D03*
D19*
X128778000Y-130175000D03*
D20*
X128778000Y-125095000D03*
D19*
X132588000Y-130175000D03*
D20*
X132588000Y-125095000D03*
D17*
X118618000Y-126365000D03*
D18*
X121158000Y-126365000D03*
D21*
X150998000Y-89365000D03*
X126998000Y-89365000D03*
X126998000Y-113365000D03*
X150998000Y-113365000D03*
M02*
