M48
;DRILL file {KiCad 4.0.1-stable} date 2017/08/26 19:12:38
;FORMAT={3:3/ absolute / metric / suppress trailing zeros}
FMAT,2
METRIC,LZ
T1C0.700
T2C0.800
T3C1.000
%
G90
G05
M71
T1
X124968Y-125095
X124968Y-130175
X128778Y-125095
X128778Y-130175
X132588Y-125095
X132588Y-130175
T2
X139573Y-12577
X139573Y-12827
T3
X118618Y-070485
X118618Y-073025
X118618Y-078105
X118618Y-080645
X118618Y-121285
X118618Y-126365
X121158Y-070485
X121158Y-073025
X121158Y-078105
X121158Y-080645
X121158Y-121285
X121158Y-126365
X123698Y-070485
X123698Y-073025
X123698Y-078105
X123698Y-080645
X123698Y-121285
X126238Y-070485
X126238Y-073025
X126238Y-078105
X126238Y-080645
X126238Y-121285
X128778Y-070485
X128778Y-073025
X128778Y-078105
X128778Y-080645
X128778Y-121285
X131318Y-070485
X131318Y-073025
X131318Y-078105
X131318Y-080645
X131318Y-121285
X133858Y-070485
X133858Y-073025
X133858Y-078105
X133858Y-080645
X133858Y-121285
X136398Y-070485
X136398Y-073025
X136398Y-078105
X136398Y-080645
X136398Y-121285
X138938Y-070485
X138938Y-073025
X138938Y-078105
X138938Y-080645
X138938Y-121285
X141478Y-070485
X141478Y-073025
X141478Y-078105
X141478Y-080645
X141478Y-121285
X144018Y-070485
X144018Y-073025
X144018Y-078105
X144018Y-080645
X144018Y-121285
X146558Y-070485
X146558Y-073025
X146558Y-078105
X146558Y-080645
X146558Y-121285
X146558Y-127635
X149098Y-070485
X149098Y-073025
X149098Y-078105
X149098Y-080645
X149098Y-121285
X149098Y-127635
X151638Y-127635
T0
M30
