M48
;DRILL file {KiCad 4.0.1-stable} date 2017/09/23 7:18:26
;FORMAT={3:3/ absolute / metric / suppress trailing zeros}
FMAT,2
METRIC,LZ
T1C0.700
T2C0.800
T3C1.000
T4C2.700
%
G90
G05
M71
T1
X124968Y-125095
X124968Y-130175
X128778Y-125095
X128778Y-130175
X132588Y-125095
X132588Y-130175
T2
X139573Y-12577
X139573Y-12827
T3
X118618Y-078105
X118618Y-080645
X118618Y-121285
X118618Y-126365
X121158Y-078105
X121158Y-080645
X121158Y-121285
X121158Y-126365
X123698Y-078105
X123698Y-080645
X123698Y-121285
X126238Y-078105
X126238Y-080645
X126238Y-085725
X126238Y-088265
X126238Y-121285
X128778Y-078105
X128778Y-080645
X128778Y-085725
X128778Y-088265
X128778Y-121285
X131318Y-078105
X131318Y-080645
X131318Y-085725
X131318Y-088265
X131318Y-121285
X133858Y-078105
X133858Y-080645
X133858Y-085725
X133858Y-088265
X133858Y-121285
X136398Y-078105
X136398Y-080645
X136398Y-085725
X136398Y-088265
X136398Y-121285
X138938Y-078105
X138938Y-080645
X138938Y-085725
X138938Y-088265
X138938Y-121285
X141478Y-078105
X141478Y-080645
X141478Y-085725
X141478Y-088265
X141478Y-121285
X144018Y-078105
X144018Y-080645
X144018Y-085725
X144018Y-088265
X144018Y-121285
X146558Y-078105
X146558Y-080645
X146558Y-085725
X146558Y-088265
X146558Y-121285
X146558Y-127635
X149098Y-078105
X149098Y-080645
X149098Y-085725
X149098Y-088265
X149098Y-121285
X149098Y-127635
X151638Y-085725
X151638Y-088265
X151638Y-127635
X154178Y-085725
X154178Y-088265
X156718Y-085725
X156718Y-088265
T4
X132998Y-096365
X132998Y-116365
X152998Y-096365
X152998Y-116365
T0
M30
