G04 #@! TF.FileFunction,Copper,L1,Top,Signal*
%FSLAX46Y46*%
G04 Gerber Fmt 4.6, Leading zero omitted, Abs format (unit mm)*
G04 Created by KiCad (PCBNEW 4.0.1-stable) date 2017/09/23 7:18:13*
%MOMM*%
G01*
G04 APERTURE LIST*
%ADD10C,0.100000*%
%ADD11R,1.600000X1.600000*%
%ADD12C,1.600000*%
%ADD13R,1.700000X1.700000*%
%ADD14O,1.700000X1.700000*%
%ADD15C,1.400000*%
%ADD16O,1.400000X1.400000*%
%ADD17C,0.250000*%
G04 APERTURE END LIST*
D10*
D11*
X139573000Y-128270000D03*
D12*
X139573000Y-125770000D03*
D13*
X118618000Y-121285000D03*
D14*
X121158000Y-121285000D03*
X123698000Y-121285000D03*
X126238000Y-121285000D03*
X128778000Y-121285000D03*
X131318000Y-121285000D03*
X133858000Y-121285000D03*
X136398000Y-121285000D03*
X138938000Y-121285000D03*
X141478000Y-121285000D03*
X144018000Y-121285000D03*
X146558000Y-121285000D03*
X149098000Y-121285000D03*
D13*
X156718000Y-85725000D03*
D14*
X156718000Y-88265000D03*
X154178000Y-85725000D03*
X154178000Y-88265000D03*
X151638000Y-85725000D03*
X151638000Y-88265000D03*
X149098000Y-85725000D03*
X149098000Y-88265000D03*
X146558000Y-85725000D03*
X146558000Y-88265000D03*
X144018000Y-85725000D03*
X144018000Y-88265000D03*
X141478000Y-85725000D03*
X141478000Y-88265000D03*
X138938000Y-85725000D03*
X138938000Y-88265000D03*
X136398000Y-85725000D03*
X136398000Y-88265000D03*
X133858000Y-85725000D03*
X133858000Y-88265000D03*
X131318000Y-85725000D03*
X131318000Y-88265000D03*
X128778000Y-85725000D03*
X128778000Y-88265000D03*
X126238000Y-85725000D03*
X126238000Y-88265000D03*
D13*
X146558000Y-127635000D03*
D14*
X149098000Y-127635000D03*
X151638000Y-127635000D03*
D13*
X149098000Y-78105000D03*
D14*
X149098000Y-80645000D03*
X146558000Y-78105000D03*
X146558000Y-80645000D03*
X144018000Y-78105000D03*
X144018000Y-80645000D03*
X141478000Y-78105000D03*
X141478000Y-80645000D03*
X138938000Y-78105000D03*
X138938000Y-80645000D03*
X136398000Y-78105000D03*
X136398000Y-80645000D03*
X133858000Y-78105000D03*
X133858000Y-80645000D03*
X131318000Y-78105000D03*
X131318000Y-80645000D03*
X128778000Y-78105000D03*
X128778000Y-80645000D03*
X126238000Y-78105000D03*
X126238000Y-80645000D03*
X123698000Y-78105000D03*
X123698000Y-80645000D03*
X121158000Y-78105000D03*
X121158000Y-80645000D03*
X118618000Y-78105000D03*
X118618000Y-80645000D03*
D15*
X124968000Y-125095000D03*
D16*
X124968000Y-130175000D03*
D15*
X128778000Y-130175000D03*
D16*
X128778000Y-125095000D03*
D15*
X132588000Y-130175000D03*
D16*
X132588000Y-125095000D03*
D13*
X118618000Y-126365000D03*
D14*
X121158000Y-126365000D03*
D17*
X151638000Y-125050300D02*
X149098000Y-122510300D01*
X151638000Y-127635000D02*
X151638000Y-125050300D01*
X149098000Y-121285000D02*
X149098000Y-122510300D01*
X144697700Y-128270000D02*
X145332700Y-127635000D01*
X139573000Y-128270000D02*
X144697700Y-128270000D01*
X146558000Y-127635000D02*
X145332700Y-127635000D01*
X146926700Y-125770000D02*
X139573000Y-125770000D01*
X147872700Y-126716000D02*
X146926700Y-125770000D01*
X147872700Y-127635000D02*
X147872700Y-126716000D01*
X149098000Y-127635000D02*
X147872700Y-127635000D01*
X139153300Y-126189700D02*
X139573000Y-125770000D01*
X130948000Y-126189700D02*
X139153300Y-126189700D01*
X129853300Y-125095000D02*
X130948000Y-126189700D01*
X128778000Y-125095000D02*
X129853300Y-125095000D01*
X128778000Y-125095000D02*
X127702700Y-125095000D01*
X126616100Y-124008400D02*
X127702700Y-125095000D01*
X121158000Y-124008400D02*
X126616100Y-124008400D01*
X121158000Y-126365000D02*
X121158000Y-124008400D01*
X121158000Y-124008400D02*
X121158000Y-121285000D01*
X155492700Y-87757200D02*
X155492700Y-88265000D01*
X154730500Y-86995000D02*
X155492700Y-87757200D01*
X153633100Y-86995000D02*
X154730500Y-86995000D01*
X152952600Y-86314500D02*
X153633100Y-86995000D01*
X152952600Y-84499600D02*
X152952600Y-86314500D01*
X149098000Y-80645000D02*
X152952600Y-84499600D01*
X156718000Y-88265000D02*
X155492700Y-88265000D01*
X151130200Y-84499700D02*
X151638000Y-84499700D01*
X147828000Y-81197500D02*
X151130200Y-84499700D01*
X147828000Y-80100100D02*
X147828000Y-81197500D01*
X147058200Y-79330300D02*
X147828000Y-80100100D01*
X146009000Y-79330300D02*
X147058200Y-79330300D01*
X145243300Y-78564600D02*
X146009000Y-79330300D01*
X145243300Y-78105000D02*
X145243300Y-78564600D01*
X144018000Y-78105000D02*
X145243300Y-78105000D01*
X151638000Y-85725000D02*
X151638000Y-84499700D01*
X151130200Y-87039700D02*
X151638000Y-87039700D01*
X150368000Y-86277500D02*
X151130200Y-87039700D01*
X150368000Y-85260300D02*
X150368000Y-86277500D01*
X146978000Y-81870300D02*
X150368000Y-85260300D01*
X146009000Y-81870300D02*
X146978000Y-81870300D01*
X145243300Y-81104600D02*
X146009000Y-81870300D01*
X145243300Y-80645000D02*
X145243300Y-81104600D01*
X144018000Y-80645000D02*
X145243300Y-80645000D01*
X151638000Y-88265000D02*
X151638000Y-87039700D01*
X147872700Y-85217200D02*
X147872700Y-85725000D01*
X146705600Y-84050100D02*
X147872700Y-85217200D01*
X145689000Y-84050100D02*
X146705600Y-84050100D01*
X142703300Y-81064400D02*
X145689000Y-84050100D01*
X142703300Y-80096000D02*
X142703300Y-81064400D01*
X141937600Y-79330300D02*
X142703300Y-80096000D01*
X141478000Y-79330300D02*
X141937600Y-79330300D01*
X141478000Y-78105000D02*
X141478000Y-79330300D01*
X149098000Y-85725000D02*
X147872700Y-85725000D01*
X145332700Y-85217200D02*
X145332700Y-85725000D01*
X143941000Y-83825500D02*
X145332700Y-85217200D01*
X142924400Y-83825500D02*
X143941000Y-83825500D01*
X140163300Y-81064400D02*
X142924400Y-83825500D01*
X140163300Y-80096000D02*
X140163300Y-81064400D01*
X139397600Y-79330300D02*
X140163300Y-80096000D01*
X138938000Y-79330300D02*
X139397600Y-79330300D01*
X138938000Y-78105000D02*
X138938000Y-79330300D01*
X146558000Y-85725000D02*
X145332700Y-85725000D01*
X145332700Y-87757200D02*
X145332700Y-88265000D01*
X144570500Y-86995000D02*
X145332700Y-87757200D01*
X143473100Y-86995000D02*
X144570500Y-86995000D01*
X142792600Y-86314500D02*
X143473100Y-86995000D01*
X142792600Y-85265400D02*
X142792600Y-86314500D01*
X139397500Y-81870300D02*
X142792600Y-85265400D01*
X138938000Y-81870300D02*
X139397500Y-81870300D01*
X138938000Y-80645000D02*
X138938000Y-81870300D01*
X146558000Y-88265000D02*
X145332700Y-88265000D01*
X140970200Y-87039700D02*
X141478000Y-87039700D01*
X140208000Y-86277500D02*
X140970200Y-87039700D01*
X140208000Y-85260300D02*
X140208000Y-86277500D01*
X136818000Y-81870300D02*
X140208000Y-85260300D01*
X135849000Y-81870300D02*
X136818000Y-81870300D01*
X135083300Y-81104600D02*
X135849000Y-81870300D01*
X135083300Y-80645000D02*
X135083300Y-81104600D01*
X133858000Y-80645000D02*
X135083300Y-80645000D01*
X141478000Y-88265000D02*
X141478000Y-87039700D01*
X135890200Y-84499700D02*
X136398000Y-84499700D01*
X132543300Y-81152800D02*
X135890200Y-84499700D01*
X132543300Y-80137300D02*
X132543300Y-81152800D01*
X131736300Y-79330300D02*
X132543300Y-80137300D01*
X130769000Y-79330300D02*
X131736300Y-79330300D01*
X130003300Y-78564600D02*
X130769000Y-79330300D01*
X130003300Y-78105000D02*
X130003300Y-78564600D01*
X128778000Y-78105000D02*
X130003300Y-78105000D01*
X136398000Y-85725000D02*
X136398000Y-84499700D01*
X128778000Y-80645000D02*
X130003300Y-80645000D01*
X136398000Y-88265000D02*
X136398000Y-87039700D01*
X135890200Y-87039700D02*
X136398000Y-87039700D01*
X135128000Y-86277500D02*
X135890200Y-87039700D01*
X135128000Y-85260300D02*
X135128000Y-86277500D01*
X131945300Y-82077600D02*
X135128000Y-85260300D01*
X130976300Y-82077600D02*
X131945300Y-82077600D01*
X130003300Y-81104600D02*
X130976300Y-82077600D01*
X130003300Y-80645000D02*
X130003300Y-81104600D01*
X132632700Y-85217200D02*
X132632700Y-85725000D01*
X131465600Y-84050100D02*
X132632700Y-85217200D01*
X130426300Y-84050100D02*
X131465600Y-84050100D01*
X127463300Y-81087100D02*
X130426300Y-84050100D01*
X127463300Y-80096000D02*
X127463300Y-81087100D01*
X126697600Y-79330300D02*
X127463300Y-80096000D01*
X126238000Y-79330300D02*
X126697600Y-79330300D01*
X126238000Y-78105000D02*
X126238000Y-79330300D01*
X133858000Y-85725000D02*
X132632700Y-85725000D01*
X130092700Y-85217200D02*
X130092700Y-85725000D01*
X127883500Y-83008000D02*
X130092700Y-85217200D01*
X126856200Y-83008000D02*
X127883500Y-83008000D01*
X124923300Y-81075100D02*
X126856200Y-83008000D01*
X124923300Y-80096000D02*
X124923300Y-81075100D01*
X124157600Y-79330300D02*
X124923300Y-80096000D01*
X123698000Y-79330300D02*
X124157600Y-79330300D01*
X123698000Y-78105000D02*
X123698000Y-79330300D01*
X131318000Y-85725000D02*
X130092700Y-85725000D01*
X127552700Y-87757200D02*
X127552700Y-88265000D01*
X126790500Y-86995000D02*
X127552700Y-87757200D01*
X125760800Y-86995000D02*
X126790500Y-86995000D01*
X124415600Y-85649800D02*
X125760800Y-86995000D01*
X124415600Y-83902600D02*
X124415600Y-85649800D01*
X121158000Y-80645000D02*
X124415600Y-83902600D01*
X128778000Y-88265000D02*
X127552700Y-88265000D01*
X125813900Y-84499700D02*
X126238000Y-84499700D01*
X122428000Y-81113800D02*
X125813900Y-84499700D01*
X122428000Y-80100100D02*
X122428000Y-81113800D01*
X121658200Y-79330300D02*
X122428000Y-80100100D01*
X120609000Y-79330300D02*
X121658200Y-79330300D01*
X119843300Y-78564600D02*
X120609000Y-79330300D01*
X119843300Y-78105000D02*
X119843300Y-78564600D01*
X118618000Y-78105000D02*
X119843300Y-78105000D01*
X126238000Y-85725000D02*
X126238000Y-84499700D01*
M02*
