G04 #@! TF.FileFunction,Copper,L1,Top,Signal*
%FSLAX46Y46*%
G04 Gerber Fmt 4.6, Leading zero omitted, Abs format (unit mm)*
G04 Created by KiCad (PCBNEW 4.0.1-stable) date 2017/08/26 19:12:35*
%MOMM*%
G01*
G04 APERTURE LIST*
%ADD10C,0.100000*%
%ADD11R,1.600000X1.600000*%
%ADD12C,1.600000*%
%ADD13R,1.700000X1.700000*%
%ADD14O,1.700000X1.700000*%
%ADD15C,1.400000*%
%ADD16O,1.400000X1.400000*%
%ADD17C,0.250000*%
G04 APERTURE END LIST*
D10*
D11*
X139573000Y-128270000D03*
D12*
X139573000Y-125770000D03*
D13*
X118618000Y-121285000D03*
D14*
X121158000Y-121285000D03*
X123698000Y-121285000D03*
X126238000Y-121285000D03*
X128778000Y-121285000D03*
X131318000Y-121285000D03*
X133858000Y-121285000D03*
X136398000Y-121285000D03*
X138938000Y-121285000D03*
X141478000Y-121285000D03*
X144018000Y-121285000D03*
X146558000Y-121285000D03*
X149098000Y-121285000D03*
D13*
X149098000Y-70485000D03*
D14*
X149098000Y-73025000D03*
X146558000Y-70485000D03*
X146558000Y-73025000D03*
X144018000Y-70485000D03*
X144018000Y-73025000D03*
X141478000Y-70485000D03*
X141478000Y-73025000D03*
X138938000Y-70485000D03*
X138938000Y-73025000D03*
X136398000Y-70485000D03*
X136398000Y-73025000D03*
X133858000Y-70485000D03*
X133858000Y-73025000D03*
X131318000Y-70485000D03*
X131318000Y-73025000D03*
X128778000Y-70485000D03*
X128778000Y-73025000D03*
X126238000Y-70485000D03*
X126238000Y-73025000D03*
X123698000Y-70485000D03*
X123698000Y-73025000D03*
X121158000Y-70485000D03*
X121158000Y-73025000D03*
X118618000Y-70485000D03*
X118618000Y-73025000D03*
D13*
X146558000Y-127635000D03*
D14*
X149098000Y-127635000D03*
X151638000Y-127635000D03*
D13*
X149098000Y-78105000D03*
D14*
X149098000Y-80645000D03*
X146558000Y-78105000D03*
X146558000Y-80645000D03*
X144018000Y-78105000D03*
X144018000Y-80645000D03*
X141478000Y-78105000D03*
X141478000Y-80645000D03*
X138938000Y-78105000D03*
X138938000Y-80645000D03*
X136398000Y-78105000D03*
X136398000Y-80645000D03*
X133858000Y-78105000D03*
X133858000Y-80645000D03*
X131318000Y-78105000D03*
X131318000Y-80645000D03*
X128778000Y-78105000D03*
X128778000Y-80645000D03*
X126238000Y-78105000D03*
X126238000Y-80645000D03*
X123698000Y-78105000D03*
X123698000Y-80645000D03*
X121158000Y-78105000D03*
X121158000Y-80645000D03*
X118618000Y-78105000D03*
X118618000Y-80645000D03*
D15*
X124968000Y-125095000D03*
D16*
X124968000Y-130175000D03*
D15*
X128778000Y-130175000D03*
D16*
X128778000Y-125095000D03*
D15*
X132588000Y-130175000D03*
D16*
X132588000Y-125095000D03*
D13*
X118618000Y-126365000D03*
D14*
X121158000Y-126365000D03*
D17*
X151638000Y-125050300D02*
X149098000Y-122510300D01*
X151638000Y-127635000D02*
X151638000Y-125050300D01*
X149098000Y-121285000D02*
X149098000Y-122510300D01*
X144697700Y-128270000D02*
X145332700Y-127635000D01*
X139573000Y-128270000D02*
X144697700Y-128270000D01*
X146558000Y-127635000D02*
X145332700Y-127635000D01*
X146926700Y-125770000D02*
X139573000Y-125770000D01*
X147872700Y-126716000D02*
X146926700Y-125770000D01*
X147872700Y-127635000D02*
X147872700Y-126716000D01*
X149098000Y-127635000D02*
X147872700Y-127635000D01*
X139153300Y-126189700D02*
X139573000Y-125770000D01*
X130948000Y-126189700D02*
X139153300Y-126189700D01*
X129853300Y-125095000D02*
X130948000Y-126189700D01*
X128778000Y-125095000D02*
X129853300Y-125095000D01*
X128778000Y-125095000D02*
X127702700Y-125095000D01*
X126616100Y-124008400D02*
X127702700Y-125095000D01*
X121158000Y-124008400D02*
X126616100Y-124008400D01*
X121158000Y-126365000D02*
X121158000Y-124008400D01*
X121158000Y-124008400D02*
X121158000Y-121285000D01*
X149098000Y-75657600D02*
X149098000Y-73025000D01*
X147872600Y-76883000D02*
X149098000Y-75657600D01*
X147872600Y-79113300D02*
X147872600Y-76883000D01*
X148179000Y-79419700D02*
X147872600Y-79113300D01*
X149098000Y-79419700D02*
X148179000Y-79419700D01*
X149098000Y-80645000D02*
X149098000Y-79419700D01*
X147065800Y-71710300D02*
X146558000Y-71710300D01*
X147828000Y-72472500D02*
X147065800Y-71710300D01*
X147828000Y-75609700D02*
X147828000Y-72472500D01*
X146558000Y-76879700D02*
X147828000Y-75609700D01*
X146558000Y-78105000D02*
X146558000Y-76879700D01*
X146558000Y-70485000D02*
X146558000Y-71710300D01*
X144525800Y-71710300D02*
X144018000Y-71710300D01*
X145288000Y-72472500D02*
X144525800Y-71710300D01*
X145288000Y-75609700D02*
X145288000Y-72472500D01*
X144018000Y-76879700D02*
X145288000Y-75609700D01*
X144018000Y-78105000D02*
X144018000Y-76879700D01*
X144018000Y-70485000D02*
X144018000Y-71710300D01*
X142748200Y-75520100D02*
X144018000Y-74250300D01*
X142748200Y-78609400D02*
X142748200Y-75520100D01*
X143558500Y-79419700D02*
X142748200Y-78609400D01*
X144018000Y-79419700D02*
X143558500Y-79419700D01*
X144018000Y-80645000D02*
X144018000Y-79419700D01*
X144018000Y-73025000D02*
X144018000Y-74250300D01*
X140970200Y-71710300D02*
X141478000Y-71710300D01*
X140208000Y-72472500D02*
X140970200Y-71710300D01*
X140208000Y-74400600D02*
X140208000Y-72472500D01*
X141478000Y-75670600D02*
X140208000Y-74400600D01*
X141478000Y-78105000D02*
X141478000Y-75670600D01*
X141478000Y-70485000D02*
X141478000Y-71710300D01*
X138430200Y-71710300D02*
X138938000Y-71710300D01*
X137668000Y-72472500D02*
X138430200Y-71710300D01*
X137668000Y-75609700D02*
X137668000Y-72472500D01*
X138938000Y-76879700D02*
X137668000Y-75609700D01*
X138938000Y-78105000D02*
X138938000Y-76879700D01*
X138938000Y-70485000D02*
X138938000Y-71710300D01*
X140184500Y-75496800D02*
X138938000Y-74250300D01*
X140184500Y-78632700D02*
X140184500Y-75496800D01*
X139397500Y-79419700D02*
X140184500Y-78632700D01*
X138938000Y-79419700D02*
X139397500Y-79419700D01*
X138938000Y-80645000D02*
X138938000Y-79419700D01*
X138938000Y-73025000D02*
X138938000Y-74250300D01*
X135890200Y-71710300D02*
X136398000Y-71710300D01*
X135128000Y-72472500D02*
X135890200Y-71710300D01*
X135128000Y-74400600D02*
X135128000Y-72472500D01*
X136398000Y-75670600D02*
X135128000Y-74400600D01*
X136398000Y-78105000D02*
X136398000Y-75670600D01*
X136398000Y-70485000D02*
X136398000Y-71710300D01*
X133350200Y-71710300D02*
X133858000Y-71710300D01*
X132588000Y-72472500D02*
X133350200Y-71710300D01*
X132588000Y-75609700D02*
X132588000Y-72472500D01*
X133858000Y-76879700D02*
X132588000Y-75609700D01*
X133858000Y-78105000D02*
X133858000Y-76879700D01*
X133858000Y-70485000D02*
X133858000Y-71710300D01*
X135128000Y-75520300D02*
X133858000Y-74250300D01*
X135128000Y-78609200D02*
X135128000Y-75520300D01*
X134317500Y-79419700D02*
X135128000Y-78609200D01*
X133858000Y-79419700D02*
X134317500Y-79419700D01*
X133858000Y-80645000D02*
X133858000Y-79419700D01*
X133858000Y-73025000D02*
X133858000Y-74250300D01*
X130810200Y-71710300D02*
X131318000Y-71710300D01*
X130048000Y-72472500D02*
X130810200Y-71710300D01*
X130048000Y-74400600D02*
X130048000Y-72472500D01*
X131318000Y-75670600D02*
X130048000Y-74400600D01*
X131318000Y-78105000D02*
X131318000Y-75670600D01*
X131318000Y-70485000D02*
X131318000Y-71710300D01*
X128270200Y-71710300D02*
X128778000Y-71710300D01*
X127508000Y-72472500D02*
X128270200Y-71710300D01*
X127508000Y-75609700D02*
X127508000Y-72472500D01*
X128778000Y-76879700D02*
X127508000Y-75609700D01*
X128778000Y-78105000D02*
X128778000Y-76879700D01*
X128778000Y-70485000D02*
X128778000Y-71710300D01*
X130024500Y-75496800D02*
X128778000Y-74250300D01*
X130024500Y-78632700D02*
X130024500Y-75496800D01*
X129237500Y-79419700D02*
X130024500Y-78632700D01*
X128778000Y-79419700D02*
X129237500Y-79419700D01*
X128778000Y-80645000D02*
X128778000Y-79419700D01*
X128778000Y-73025000D02*
X128778000Y-74250300D01*
X125730200Y-71710300D02*
X126238000Y-71710300D01*
X124968000Y-72472500D02*
X125730200Y-71710300D01*
X124968000Y-74400600D02*
X124968000Y-72472500D01*
X126238000Y-75670600D02*
X124968000Y-74400600D01*
X126238000Y-78105000D02*
X126238000Y-75670600D01*
X126238000Y-70485000D02*
X126238000Y-71710300D01*
X123190200Y-71710300D02*
X123698000Y-71710300D01*
X122428000Y-72472500D02*
X123190200Y-71710300D01*
X122428000Y-75609700D02*
X122428000Y-72472500D01*
X123698000Y-76879700D02*
X122428000Y-75609700D01*
X123698000Y-78105000D02*
X123698000Y-76879700D01*
X123698000Y-70485000D02*
X123698000Y-71710300D01*
X124968000Y-75520300D02*
X123698000Y-74250300D01*
X124968000Y-78609200D02*
X124968000Y-75520300D01*
X124157500Y-79419700D02*
X124968000Y-78609200D01*
X123698000Y-79419700D02*
X124157500Y-79419700D01*
X123698000Y-80645000D02*
X123698000Y-79419700D01*
X123698000Y-73025000D02*
X123698000Y-74250300D01*
X120650200Y-71710300D02*
X121158000Y-71710300D01*
X119888000Y-72472500D02*
X120650200Y-71710300D01*
X119888000Y-74400600D02*
X119888000Y-72472500D01*
X121158000Y-75670600D02*
X119888000Y-74400600D01*
X121158000Y-78105000D02*
X121158000Y-75670600D01*
X121158000Y-70485000D02*
X121158000Y-71710300D01*
X118110200Y-71710300D02*
X118618000Y-71710300D01*
X117385600Y-72434900D02*
X118110200Y-71710300D01*
X117385600Y-75647300D02*
X117385600Y-72434900D01*
X118618000Y-76879700D02*
X117385600Y-75647300D01*
X118618000Y-78105000D02*
X118618000Y-76879700D01*
X118618000Y-70485000D02*
X118618000Y-71710300D01*
X119888000Y-75520300D02*
X118618000Y-74250300D01*
X119888000Y-78609200D02*
X119888000Y-75520300D01*
X119077500Y-79419700D02*
X119888000Y-78609200D01*
X118618000Y-79419700D02*
X119077500Y-79419700D01*
X118618000Y-80645000D02*
X118618000Y-79419700D01*
X118618000Y-73025000D02*
X118618000Y-74250300D01*
M02*
