G04 #@! TF.FileFunction,Legend,Bot*
%FSLAX46Y46*%
G04 Gerber Fmt 4.6, Leading zero omitted, Abs format (unit mm)*
G04 Created by KiCad (PCBNEW 4.0.1-stable) date 2017/08/26 19:12:35*
%MOMM*%
G01*
G04 APERTURE LIST*
%ADD10C,0.100000*%
%ADD11C,0.120000*%
%ADD12C,0.150000*%
%ADD13R,1.600000X1.600000*%
%ADD14C,1.600000*%
%ADD15R,1.700000X1.700000*%
%ADD16O,1.700000X1.700000*%
%ADD17C,1.400000*%
%ADD18O,1.400000X1.400000*%
%ADD19C,3.200000*%
G04 APERTURE END LIST*
D10*
D11*
X147828000Y-69155000D02*
X117288000Y-69155000D01*
X117288000Y-69155000D02*
X117288000Y-74355000D01*
X117288000Y-74355000D02*
X150428000Y-74355000D01*
X150428000Y-74355000D02*
X150428000Y-71755000D01*
X150428000Y-71755000D02*
X147828000Y-71755000D01*
X147828000Y-71755000D02*
X147828000Y-69155000D01*
X149098000Y-69155000D02*
X150428000Y-69155000D01*
X150428000Y-69155000D02*
X150428000Y-70425000D01*
X147828000Y-76775000D02*
X117288000Y-76775000D01*
X117288000Y-76775000D02*
X117288000Y-81975000D01*
X117288000Y-81975000D02*
X150428000Y-81975000D01*
X150428000Y-81975000D02*
X150428000Y-79375000D01*
X150428000Y-79375000D02*
X147828000Y-79375000D01*
X147828000Y-79375000D02*
X147828000Y-76775000D01*
X149098000Y-76775000D02*
X150428000Y-76775000D01*
X150428000Y-76775000D02*
X150428000Y-78045000D01*
D12*
X150880381Y-71421667D02*
X151594667Y-71421667D01*
X151737524Y-71374047D01*
X151832762Y-71278809D01*
X151880381Y-71135952D01*
X151880381Y-71040714D01*
X150975619Y-71850238D02*
X150928000Y-71897857D01*
X150880381Y-71993095D01*
X150880381Y-72231191D01*
X150928000Y-72326429D01*
X150975619Y-72374048D01*
X151070857Y-72421667D01*
X151166095Y-72421667D01*
X151308952Y-72374048D01*
X151880381Y-71802619D01*
X151880381Y-72421667D01*
X150880381Y-79041667D02*
X151594667Y-79041667D01*
X151737524Y-78994047D01*
X151832762Y-78898809D01*
X151880381Y-78755952D01*
X151880381Y-78660714D01*
X151213714Y-79946429D02*
X151880381Y-79946429D01*
X150832762Y-79708333D02*
X151547048Y-79470238D01*
X151547048Y-80089286D01*
%LPC*%
D13*
X139573000Y-128270000D03*
D14*
X139573000Y-125770000D03*
D15*
X118618000Y-121285000D03*
D16*
X121158000Y-121285000D03*
X123698000Y-121285000D03*
X126238000Y-121285000D03*
X128778000Y-121285000D03*
X131318000Y-121285000D03*
X133858000Y-121285000D03*
X136398000Y-121285000D03*
X138938000Y-121285000D03*
X141478000Y-121285000D03*
X144018000Y-121285000D03*
X146558000Y-121285000D03*
X149098000Y-121285000D03*
D15*
X149098000Y-70485000D03*
D16*
X149098000Y-73025000D03*
X146558000Y-70485000D03*
X146558000Y-73025000D03*
X144018000Y-70485000D03*
X144018000Y-73025000D03*
X141478000Y-70485000D03*
X141478000Y-73025000D03*
X138938000Y-70485000D03*
X138938000Y-73025000D03*
X136398000Y-70485000D03*
X136398000Y-73025000D03*
X133858000Y-70485000D03*
X133858000Y-73025000D03*
X131318000Y-70485000D03*
X131318000Y-73025000D03*
X128778000Y-70485000D03*
X128778000Y-73025000D03*
X126238000Y-70485000D03*
X126238000Y-73025000D03*
X123698000Y-70485000D03*
X123698000Y-73025000D03*
X121158000Y-70485000D03*
X121158000Y-73025000D03*
X118618000Y-70485000D03*
X118618000Y-73025000D03*
D15*
X146558000Y-127635000D03*
D16*
X149098000Y-127635000D03*
X151638000Y-127635000D03*
D15*
X149098000Y-78105000D03*
D16*
X149098000Y-80645000D03*
X146558000Y-78105000D03*
X146558000Y-80645000D03*
X144018000Y-78105000D03*
X144018000Y-80645000D03*
X141478000Y-78105000D03*
X141478000Y-80645000D03*
X138938000Y-78105000D03*
X138938000Y-80645000D03*
X136398000Y-78105000D03*
X136398000Y-80645000D03*
X133858000Y-78105000D03*
X133858000Y-80645000D03*
X131318000Y-78105000D03*
X131318000Y-80645000D03*
X128778000Y-78105000D03*
X128778000Y-80645000D03*
X126238000Y-78105000D03*
X126238000Y-80645000D03*
X123698000Y-78105000D03*
X123698000Y-80645000D03*
X121158000Y-78105000D03*
X121158000Y-80645000D03*
X118618000Y-78105000D03*
X118618000Y-80645000D03*
D17*
X124968000Y-125095000D03*
D18*
X124968000Y-130175000D03*
D17*
X128778000Y-130175000D03*
D18*
X128778000Y-125095000D03*
D17*
X132588000Y-130175000D03*
D18*
X132588000Y-125095000D03*
D15*
X118618000Y-126365000D03*
D16*
X121158000Y-126365000D03*
D19*
X150998000Y-89365000D03*
X126998000Y-89365000D03*
X126998000Y-113365000D03*
X150998000Y-113365000D03*
M02*
