G04 #@! TF.FileFunction,Copper,L2,Bot,Signal*
%FSLAX46Y46*%
G04 Gerber Fmt 4.6, Leading zero omitted, Abs format (unit mm)*
G04 Created by KiCad (PCBNEW 4.0.1-stable) date 2017/08/26 19:12:35*
%MOMM*%
G01*
G04 APERTURE LIST*
%ADD10C,0.100000*%
%ADD11R,1.600000X1.600000*%
%ADD12C,1.600000*%
%ADD13R,1.700000X1.700000*%
%ADD14O,1.700000X1.700000*%
%ADD15C,1.400000*%
%ADD16O,1.400000X1.400000*%
%ADD17C,0.250000*%
G04 APERTURE END LIST*
D10*
D11*
X139573000Y-128270000D03*
D12*
X139573000Y-125770000D03*
D13*
X118618000Y-121285000D03*
D14*
X121158000Y-121285000D03*
X123698000Y-121285000D03*
X126238000Y-121285000D03*
X128778000Y-121285000D03*
X131318000Y-121285000D03*
X133858000Y-121285000D03*
X136398000Y-121285000D03*
X138938000Y-121285000D03*
X141478000Y-121285000D03*
X144018000Y-121285000D03*
X146558000Y-121285000D03*
X149098000Y-121285000D03*
D13*
X149098000Y-70485000D03*
D14*
X149098000Y-73025000D03*
X146558000Y-70485000D03*
X146558000Y-73025000D03*
X144018000Y-70485000D03*
X144018000Y-73025000D03*
X141478000Y-70485000D03*
X141478000Y-73025000D03*
X138938000Y-70485000D03*
X138938000Y-73025000D03*
X136398000Y-70485000D03*
X136398000Y-73025000D03*
X133858000Y-70485000D03*
X133858000Y-73025000D03*
X131318000Y-70485000D03*
X131318000Y-73025000D03*
X128778000Y-70485000D03*
X128778000Y-73025000D03*
X126238000Y-70485000D03*
X126238000Y-73025000D03*
X123698000Y-70485000D03*
X123698000Y-73025000D03*
X121158000Y-70485000D03*
X121158000Y-73025000D03*
X118618000Y-70485000D03*
X118618000Y-73025000D03*
D13*
X146558000Y-127635000D03*
D14*
X149098000Y-127635000D03*
X151638000Y-127635000D03*
D13*
X149098000Y-78105000D03*
D14*
X149098000Y-80645000D03*
X146558000Y-78105000D03*
X146558000Y-80645000D03*
X144018000Y-78105000D03*
X144018000Y-80645000D03*
X141478000Y-78105000D03*
X141478000Y-80645000D03*
X138938000Y-78105000D03*
X138938000Y-80645000D03*
X136398000Y-78105000D03*
X136398000Y-80645000D03*
X133858000Y-78105000D03*
X133858000Y-80645000D03*
X131318000Y-78105000D03*
X131318000Y-80645000D03*
X128778000Y-78105000D03*
X128778000Y-80645000D03*
X126238000Y-78105000D03*
X126238000Y-80645000D03*
X123698000Y-78105000D03*
X123698000Y-80645000D03*
X121158000Y-78105000D03*
X121158000Y-80645000D03*
X118618000Y-78105000D03*
X118618000Y-80645000D03*
D15*
X124968000Y-125095000D03*
D16*
X124968000Y-130175000D03*
D15*
X128778000Y-130175000D03*
D16*
X128778000Y-125095000D03*
D15*
X132588000Y-130175000D03*
D16*
X132588000Y-125095000D03*
D13*
X118618000Y-126365000D03*
D14*
X121158000Y-126365000D03*
D17*
X136492700Y-130175000D02*
X138397700Y-128270000D01*
X132588000Y-130175000D02*
X136492700Y-130175000D01*
X139573000Y-128270000D02*
X138397700Y-128270000D01*
X148638400Y-71710300D02*
X149098000Y-71710300D01*
X147872700Y-72476000D02*
X148638400Y-71710300D01*
X147872700Y-75654400D02*
X147872700Y-72476000D01*
X149098000Y-76879700D02*
X147872700Y-75654400D01*
X149098000Y-78105000D02*
X149098000Y-76879700D01*
X149098000Y-70485000D02*
X149098000Y-71710300D01*
X145288000Y-75520300D02*
X146558000Y-74250300D01*
X145288000Y-78609200D02*
X145288000Y-75520300D01*
X146098500Y-79419700D02*
X145288000Y-78609200D01*
X146558000Y-79419700D02*
X146098500Y-79419700D01*
X146558000Y-80645000D02*
X146558000Y-79419700D01*
X146558000Y-73025000D02*
X146558000Y-74250300D01*
X142748000Y-75520300D02*
X141478000Y-74250300D01*
X142748000Y-78609200D02*
X142748000Y-75520300D01*
X141937500Y-79419700D02*
X142748000Y-78609200D01*
X141478000Y-79419700D02*
X141937500Y-79419700D01*
X141478000Y-80645000D02*
X141478000Y-79419700D01*
X141478000Y-73025000D02*
X141478000Y-74250300D01*
X137668000Y-75520300D02*
X136398000Y-74250300D01*
X137668000Y-78609200D02*
X137668000Y-75520300D01*
X136857500Y-79419700D02*
X137668000Y-78609200D01*
X136398000Y-79419700D02*
X136857500Y-79419700D01*
X136398000Y-80645000D02*
X136398000Y-79419700D01*
X136398000Y-73025000D02*
X136398000Y-74250300D01*
X132588000Y-75520300D02*
X131318000Y-74250300D01*
X132588000Y-78609200D02*
X132588000Y-75520300D01*
X131777500Y-79419700D02*
X132588000Y-78609200D01*
X131318000Y-79419700D02*
X131777500Y-79419700D01*
X131318000Y-80645000D02*
X131318000Y-79419700D01*
X131318000Y-73025000D02*
X131318000Y-74250300D01*
X127508000Y-75520300D02*
X126238000Y-74250300D01*
X127508000Y-78609200D02*
X127508000Y-75520300D01*
X126697500Y-79419700D02*
X127508000Y-78609200D01*
X126238000Y-79419700D02*
X126697500Y-79419700D01*
X126238000Y-80645000D02*
X126238000Y-79419700D01*
X126238000Y-73025000D02*
X126238000Y-74250300D01*
X122428000Y-75520300D02*
X121158000Y-74250300D01*
X122428000Y-78609200D02*
X122428000Y-75520300D01*
X121617500Y-79419700D02*
X122428000Y-78609200D01*
X121158000Y-79419700D02*
X121617500Y-79419700D01*
X121158000Y-80645000D02*
X121158000Y-79419700D01*
X121158000Y-73025000D02*
X121158000Y-74250300D01*
X132588000Y-125095000D02*
X132588000Y-126170300D01*
X128778000Y-129980300D02*
X128778000Y-130175000D01*
X132588000Y-126170300D02*
X128778000Y-129980300D01*
X124968000Y-130175000D02*
X126043300Y-130175000D01*
X128778000Y-130175000D02*
X126043300Y-130175000D01*
X118618000Y-126365000D02*
X119843300Y-126365000D01*
X118618000Y-123139700D02*
X118618000Y-121285000D01*
X120573300Y-125095000D02*
X118618000Y-123139700D01*
X124968000Y-125095000D02*
X120573300Y-125095000D01*
X119843300Y-125825000D02*
X119843300Y-126365000D01*
X120573300Y-125095000D02*
X119843300Y-125825000D01*
M02*
