M48
;DRILL file {KiCad 4.0.1-stable} date 2017/09/23 6:09:04
;FORMAT={3:3/ absolute / metric / suppress trailing zeros}
FMAT,2
METRIC,LZ
T1C0.400
T2C0.700
T3C0.800
T4C1.000
T5C3.200
%
G90
G05
M71
T1
X12703Y-086738
X127476Y-085768
X132534Y-087067
X133566Y-087071
X139324Y-089242
X139802Y-092521
X144687Y-093228
X1483Y-093803
X151661Y-095301
X152724Y-097384
X153095Y-094516
X153449Y-102471
X153742Y-082161
X154027Y-10415
X157594Y-085186
T2
X124968Y-125095
X124968Y-130175
X128778Y-125095
X128778Y-130175
X132588Y-125095
X132588Y-130175
T3
X139573Y-12577
X139573Y-12827
T4
X118618Y-078105
X118618Y-080645
X118618Y-121285
X118618Y-126365
X121158Y-078105
X121158Y-080645
X121158Y-121285
X121158Y-126365
X123698Y-078105
X123698Y-080645
X123698Y-121285
X126238Y-078105
X126238Y-080645
X126238Y-121285
X128778Y-078105
X128778Y-080645
X128778Y-121285
X131318Y-078105
X131318Y-080645
X131318Y-121285
X133858Y-078105
X133858Y-080645
X133858Y-121285
X136398Y-078105
X136398Y-080645
X136398Y-121285
X138938Y-078105
X138938Y-080645
X138938Y-121285
X141478Y-078105
X141478Y-080645
X141478Y-121285
X144018Y-078105
X144018Y-080645
X144018Y-121285
X146558Y-078105
X146558Y-080645
X146558Y-121285
X146558Y-127635
X149098Y-078105
X149098Y-080645
X149098Y-121285
X149098Y-127635
X151638Y-127635
X159258Y-085725
X159258Y-088265
X159258Y-090805
X159258Y-093345
X159258Y-095885
X159258Y-098425
X159258Y-100965
X159258Y-103505
X159258Y-106045
X159258Y-108585
X159258Y-111125
X159258Y-113665
X159258Y-116205
X161798Y-085725
X161798Y-088265
X161798Y-090805
X161798Y-093345
X161798Y-095885
X161798Y-098425
X161798Y-100965
X161798Y-103505
X161798Y-106045
X161798Y-108585
X161798Y-111125
X161798Y-113665
X161798Y-116205
T5
X126998Y-089365
X126998Y-113365
X150998Y-089365
X150998Y-113365
T0
M30
