G04 #@! TF.FileFunction,Copper,L2,Bot,Signal*
%FSLAX46Y46*%
G04 Gerber Fmt 4.6, Leading zero omitted, Abs format (unit mm)*
G04 Created by KiCad (PCBNEW 4.0.1-stable) date 2017/09/23 6:08:57*
%MOMM*%
G01*
G04 APERTURE LIST*
%ADD10C,0.100000*%
%ADD11R,1.600000X1.600000*%
%ADD12C,1.600000*%
%ADD13R,1.700000X1.700000*%
%ADD14O,1.700000X1.700000*%
%ADD15C,1.400000*%
%ADD16O,1.400000X1.400000*%
%ADD17C,0.600000*%
%ADD18C,0.250000*%
G04 APERTURE END LIST*
D10*
D11*
X139573000Y-128270000D03*
D12*
X139573000Y-125770000D03*
D13*
X118618000Y-121285000D03*
D14*
X121158000Y-121285000D03*
X123698000Y-121285000D03*
X126238000Y-121285000D03*
X128778000Y-121285000D03*
X131318000Y-121285000D03*
X133858000Y-121285000D03*
X136398000Y-121285000D03*
X138938000Y-121285000D03*
X141478000Y-121285000D03*
X144018000Y-121285000D03*
X146558000Y-121285000D03*
X149098000Y-121285000D03*
D13*
X161798000Y-116205000D03*
D14*
X159258000Y-116205000D03*
X161798000Y-113665000D03*
X159258000Y-113665000D03*
X161798000Y-111125000D03*
X159258000Y-111125000D03*
X161798000Y-108585000D03*
X159258000Y-108585000D03*
X161798000Y-106045000D03*
X159258000Y-106045000D03*
X161798000Y-103505000D03*
X159258000Y-103505000D03*
X161798000Y-100965000D03*
X159258000Y-100965000D03*
X161798000Y-98425000D03*
X159258000Y-98425000D03*
X161798000Y-95885000D03*
X159258000Y-95885000D03*
X161798000Y-93345000D03*
X159258000Y-93345000D03*
X161798000Y-90805000D03*
X159258000Y-90805000D03*
X161798000Y-88265000D03*
X159258000Y-88265000D03*
X161798000Y-85725000D03*
X159258000Y-85725000D03*
D13*
X146558000Y-127635000D03*
D14*
X149098000Y-127635000D03*
X151638000Y-127635000D03*
D13*
X149098000Y-78105000D03*
D14*
X149098000Y-80645000D03*
X146558000Y-78105000D03*
X146558000Y-80645000D03*
X144018000Y-78105000D03*
X144018000Y-80645000D03*
X141478000Y-78105000D03*
X141478000Y-80645000D03*
X138938000Y-78105000D03*
X138938000Y-80645000D03*
X136398000Y-78105000D03*
X136398000Y-80645000D03*
X133858000Y-78105000D03*
X133858000Y-80645000D03*
X131318000Y-78105000D03*
X131318000Y-80645000D03*
X128778000Y-78105000D03*
X128778000Y-80645000D03*
X126238000Y-78105000D03*
X126238000Y-80645000D03*
X123698000Y-78105000D03*
X123698000Y-80645000D03*
X121158000Y-78105000D03*
X121158000Y-80645000D03*
X118618000Y-78105000D03*
X118618000Y-80645000D03*
D15*
X124968000Y-125095000D03*
D16*
X124968000Y-130175000D03*
D15*
X128778000Y-130175000D03*
D16*
X128778000Y-125095000D03*
D15*
X132588000Y-130175000D03*
D16*
X132588000Y-125095000D03*
D13*
X118618000Y-126365000D03*
D14*
X121158000Y-126365000D03*
D17*
X154027000Y-104149700D03*
X153449200Y-102471400D03*
X152724400Y-97384500D03*
X153741900Y-82160500D03*
X153095100Y-94516300D03*
X151660600Y-95300800D03*
X148300400Y-93802600D03*
X144686800Y-93227800D03*
X157593900Y-85185800D03*
X139324400Y-89242000D03*
X139802000Y-92520700D03*
X132534200Y-87066700D03*
X133565800Y-87071200D03*
X127475700Y-85767600D03*
X127030400Y-86737500D03*
D18*
X146926700Y-125770000D02*
X139573000Y-125770000D01*
X147872700Y-126716000D02*
X146926700Y-125770000D01*
X147872700Y-127635000D02*
X147872700Y-126716000D01*
X149098000Y-127635000D02*
X147872700Y-127635000D01*
X139153300Y-126189700D02*
X139573000Y-125770000D01*
X130948000Y-126189700D02*
X139153300Y-126189700D01*
X129853300Y-125095000D02*
X130948000Y-126189700D01*
X128778000Y-125095000D02*
X129853300Y-125095000D01*
X158750200Y-112439700D02*
X159258000Y-112439700D01*
X154027000Y-107716500D02*
X158750200Y-112439700D01*
X154027000Y-104149700D02*
X154027000Y-107716500D01*
X159258000Y-113665000D02*
X159258000Y-112439700D01*
X159258000Y-111125000D02*
X159258000Y-109899700D01*
X154702300Y-103724500D02*
X153449200Y-102471400D01*
X154702300Y-105851800D02*
X154702300Y-103724500D01*
X158750200Y-109899700D02*
X154702300Y-105851800D01*
X159258000Y-109899700D02*
X158750200Y-109899700D01*
X141478000Y-78105000D02*
X142703300Y-78105000D01*
X161798000Y-108585000D02*
X161798000Y-107359700D01*
X142703300Y-77645500D02*
X142703300Y-78105000D01*
X143469200Y-76879600D02*
X142703300Y-77645500D01*
X155409900Y-76879600D02*
X143469200Y-76879600D01*
X163530100Y-84999800D02*
X155409900Y-76879600D01*
X163530100Y-106135400D02*
X163530100Y-84999800D01*
X162305800Y-107359700D02*
X163530100Y-106135400D01*
X161798000Y-107359700D02*
X162305800Y-107359700D01*
X159258000Y-108585000D02*
X159258000Y-107359700D01*
X155202600Y-99862700D02*
X152724400Y-97384500D01*
X155202600Y-103722600D02*
X155202600Y-99862700D01*
X158839700Y-107359700D02*
X155202600Y-103722600D01*
X159258000Y-107359700D02*
X158839700Y-107359700D01*
X162305800Y-104819700D02*
X161798000Y-104819700D01*
X163029700Y-104095800D02*
X162305800Y-104819700D01*
X163029700Y-85207100D02*
X163029700Y-104095800D01*
X157152900Y-79330300D02*
X163029700Y-85207100D01*
X140929000Y-79330300D02*
X157152900Y-79330300D01*
X140163300Y-78564600D02*
X140929000Y-79330300D01*
X140163300Y-78105000D02*
X140163300Y-78564600D01*
X138938000Y-78105000D02*
X140163300Y-78105000D01*
X161798000Y-106045000D02*
X161798000Y-104819700D01*
X141219300Y-82160500D02*
X153741900Y-82160500D01*
X140163300Y-81104500D02*
X141219300Y-82160500D01*
X140163300Y-80645000D02*
X140163300Y-81104500D01*
X138938000Y-80645000D02*
X140163300Y-80645000D01*
X158273800Y-99695000D02*
X153095100Y-94516300D01*
X159802900Y-99695000D02*
X158273800Y-99695000D01*
X160572700Y-100464800D02*
X159802900Y-99695000D01*
X160572700Y-101514000D02*
X160572700Y-100464800D01*
X161338400Y-102279700D02*
X160572700Y-101514000D01*
X161798000Y-102279700D02*
X161338400Y-102279700D01*
X161798000Y-103505000D02*
X161798000Y-102279700D01*
X159258000Y-103505000D02*
X159258000Y-102279700D01*
X158639500Y-102279700D02*
X159258000Y-102279700D01*
X151660600Y-95300800D02*
X158639500Y-102279700D01*
X159258000Y-100965000D02*
X158032700Y-100965000D01*
X158032700Y-100691700D02*
X158032700Y-100965000D01*
X151143600Y-93802600D02*
X158032700Y-100691700D01*
X148300400Y-93802600D02*
X151143600Y-93802600D01*
X161798000Y-98425000D02*
X160572700Y-98425000D01*
X144790200Y-93124400D02*
X144686800Y-93227800D01*
X153555400Y-93124400D02*
X144790200Y-93124400D01*
X157586000Y-97155000D02*
X153555400Y-93124400D01*
X159810500Y-97155000D02*
X157586000Y-97155000D01*
X160572700Y-97917200D02*
X159810500Y-97155000D01*
X160572700Y-98425000D02*
X160572700Y-97917200D01*
X131318000Y-80645000D02*
X132543300Y-80645000D01*
X157144400Y-84736300D02*
X157593900Y-85185800D01*
X137808000Y-84736300D02*
X157144400Y-84736300D01*
X134942000Y-81870300D02*
X137808000Y-84736300D01*
X133309000Y-81870300D02*
X134942000Y-81870300D01*
X132543300Y-81104600D02*
X133309000Y-81870300D01*
X132543300Y-80645000D02*
X132543300Y-81104600D01*
X161798000Y-95885000D02*
X160572700Y-95885000D01*
X160572700Y-95377200D02*
X160572700Y-95885000D01*
X159810500Y-94615000D02*
X160572700Y-95377200D01*
X156902600Y-94615000D02*
X159810500Y-94615000D01*
X154170800Y-91883200D02*
X156902600Y-94615000D01*
X141965500Y-91883200D02*
X154170800Y-91883200D01*
X141965500Y-91883100D02*
X141965500Y-91883200D01*
X139324400Y-89242000D02*
X141965500Y-91883100D01*
X153659300Y-92520700D02*
X139802000Y-92520700D01*
X157023600Y-95885000D02*
X153659300Y-92520700D01*
X159258000Y-95885000D02*
X157023600Y-95885000D01*
X161798000Y-93345000D02*
X160572700Y-93345000D01*
X160572700Y-92837200D02*
X160572700Y-93345000D01*
X159810500Y-92075000D02*
X160572700Y-92837200D01*
X157390000Y-92075000D02*
X159810500Y-92075000D01*
X152552800Y-87237800D02*
X157390000Y-92075000D01*
X134687500Y-87237800D02*
X152552800Y-87237800D01*
X133845600Y-86395900D02*
X134687500Y-87237800D01*
X133205000Y-86395900D02*
X133845600Y-86395900D01*
X132534200Y-87066700D02*
X133205000Y-86395900D01*
X157047900Y-93345000D02*
X159258000Y-93345000D01*
X155043300Y-91340400D02*
X157047900Y-93345000D01*
X149899400Y-91340400D02*
X155043300Y-91340400D01*
X146297100Y-87738100D02*
X149899400Y-91340400D01*
X134232700Y-87738100D02*
X146297100Y-87738100D01*
X133565800Y-87071200D02*
X134232700Y-87738100D01*
X161798000Y-90805000D02*
X160572700Y-90805000D01*
X160572700Y-90297200D02*
X160572700Y-90805000D01*
X159810500Y-89535000D02*
X160572700Y-90297200D01*
X156667300Y-89535000D02*
X159810500Y-89535000D01*
X153369500Y-86237200D02*
X156667300Y-89535000D01*
X135102100Y-86237200D02*
X153369500Y-86237200D01*
X134260200Y-85395300D02*
X135102100Y-86237200D01*
X127848000Y-85395300D02*
X134260200Y-85395300D01*
X127475700Y-85767600D02*
X127848000Y-85395300D01*
X156944700Y-90805000D02*
X159258000Y-90805000D01*
X152877200Y-86737500D02*
X156944700Y-90805000D01*
X134894800Y-86737500D02*
X152877200Y-86737500D01*
X134052900Y-85895600D02*
X134894800Y-86737500D01*
X132750300Y-85895600D02*
X134052900Y-85895600D01*
X131908400Y-86737500D02*
X132750300Y-85895600D01*
X127030400Y-86737500D02*
X131908400Y-86737500D01*
X161798000Y-88265000D02*
X161798000Y-87039700D01*
X121158000Y-78105000D02*
X122383300Y-78105000D01*
X161338400Y-87039700D02*
X161798000Y-87039700D01*
X160572700Y-86274000D02*
X161338400Y-87039700D01*
X160572700Y-85297000D02*
X160572700Y-86274000D01*
X159011400Y-83735700D02*
X160572700Y-85297000D01*
X137691200Y-83735700D02*
X159011400Y-83735700D01*
X135083400Y-81127900D02*
X137691200Y-83735700D01*
X135083400Y-80032300D02*
X135083400Y-81127900D01*
X134470700Y-79419600D02*
X135083400Y-80032300D01*
X123190100Y-79419600D02*
X134470700Y-79419600D01*
X122383300Y-78612800D02*
X123190100Y-79419600D01*
X122383300Y-78105000D02*
X122383300Y-78612800D01*
X159258000Y-88265000D02*
X158032700Y-88265000D01*
X155504600Y-85736900D02*
X158032700Y-88265000D01*
X135309400Y-85736900D02*
X155504600Y-85736900D01*
X134467500Y-84895000D02*
X135309400Y-85736900D01*
X125408000Y-84895000D02*
X134467500Y-84895000D01*
X121158000Y-80645000D02*
X125408000Y-84895000D01*
X158951400Y-82878400D02*
X161798000Y-85725000D01*
X139373300Y-82878400D02*
X158951400Y-82878400D01*
X137668000Y-81173100D02*
X139373300Y-82878400D01*
X137668000Y-77602300D02*
X137668000Y-81173100D01*
X136925700Y-76860000D02*
X137668000Y-77602300D01*
X120628800Y-76860000D02*
X136925700Y-76860000D01*
X119843300Y-77645500D02*
X120628800Y-76860000D01*
X119843300Y-78105000D02*
X119843300Y-77645500D01*
X118618000Y-78105000D02*
X119843300Y-78105000D01*
X118618000Y-80645000D02*
X119843300Y-80645000D01*
X159258000Y-85725000D02*
X158032700Y-85725000D01*
X157896600Y-85861100D02*
X158032700Y-85725000D01*
X157314200Y-85861100D02*
X157896600Y-85861100D01*
X156689700Y-85236600D02*
X157314200Y-85861100D01*
X137247000Y-85236600D02*
X156689700Y-85236600D01*
X136285800Y-84275400D02*
X137247000Y-85236600D01*
X125583000Y-84275400D02*
X136285800Y-84275400D01*
X122428000Y-81120400D02*
X125583000Y-84275400D01*
X122428000Y-80158500D02*
X122428000Y-81120400D01*
X121644500Y-79375000D02*
X122428000Y-80158500D01*
X120653800Y-79375000D02*
X121644500Y-79375000D01*
X119843300Y-80185500D02*
X120653800Y-79375000D01*
X119843300Y-80645000D02*
X119843300Y-80185500D01*
X118618000Y-126365000D02*
X119843300Y-126365000D01*
X118618000Y-123139700D02*
X118618000Y-121285000D01*
X120573300Y-125095000D02*
X118618000Y-123139700D01*
X124968000Y-125095000D02*
X120573300Y-125095000D01*
X119843300Y-125825000D02*
X119843300Y-126365000D01*
X120573300Y-125095000D02*
X119843300Y-125825000D01*
M02*
